<mxfile host="app.diagrams.net" modified="2020-09-22T08:57:04.464Z" agent="5.0 (Windows NT 6.1; WOW64) AppleWebKit/537.36 (KHTML, like Gecko) Chrome/78.0.3904.108 Safari/537.36" etag="iAJrBRXholdkRFmk1q65" version="13.7.3" type="github">
  <diagram id="7KyOj3fAV2kCOO-Bveho" name="第 1 页">
    <mxGraphModel dx="1090" dy="1828" grid="1" gridSize="10" guides="1" tooltips="1" connect="1" arrows="1" fold="1" page="1" pageScale="1" pageWidth="827" pageHeight="1169" math="0" shadow="0">
      <root>
        <mxCell id="0" />
        <mxCell id="1" parent="0" />
        <mxCell id="mXDbekLg4qPnqd0OjegT-2" value="" style="shape=mxgraph.cisco.routers.router;html=1;pointerEvents=1;dashed=0;fillColor=#036897;strokeColor=#ffffff;strokeWidth=2;verticalLabelPosition=bottom;verticalAlign=top;align=center;outlineConnect=0;" vertex="1" parent="1">
          <mxGeometry x="382" y="90" width="78" height="53" as="geometry" />
        </mxCell>
        <mxCell id="mXDbekLg4qPnqd0OjegT-3" value="" style="shape=mxgraph.cisco.security.firewall;html=1;pointerEvents=1;dashed=0;fillColor=#036897;strokeColor=#ffffff;strokeWidth=2;verticalLabelPosition=bottom;verticalAlign=top;align=center;outlineConnect=0;" vertex="1" parent="1">
          <mxGeometry x="750" y="40" width="29" height="67" as="geometry" />
        </mxCell>
        <mxCell id="mXDbekLg4qPnqd0OjegT-5" value="" style="shape=mxgraph.cisco.storage.cloud;html=1;pointerEvents=1;dashed=0;fillColor=#036897;strokeColor=#ffffff;strokeWidth=2;verticalLabelPosition=bottom;verticalAlign=top;align=center;outlineConnect=0;" vertex="1" parent="1">
          <mxGeometry x="311" y="-100" width="186" height="106" as="geometry" />
        </mxCell>
        <mxCell id="mXDbekLg4qPnqd0OjegT-9" value="" style="edgeStyle=orthogonalEdgeStyle;rounded=0;orthogonalLoop=1;jettySize=auto;html=1;" edge="1" parent="1" source="mXDbekLg4qPnqd0OjegT-6" target="mXDbekLg4qPnqd0OjegT-2">
          <mxGeometry relative="1" as="geometry" />
        </mxCell>
        <mxCell id="mXDbekLg4qPnqd0OjegT-6" value="" style="shape=mxgraph.cisco.switches.layer_3_switch;html=1;pointerEvents=1;dashed=0;fillColor=#036897;strokeColor=#ffffff;strokeWidth=2;verticalLabelPosition=bottom;verticalAlign=top;align=center;outlineConnect=0;" vertex="1" parent="1">
          <mxGeometry x="389" y="180" width="64" height="64" as="geometry" />
        </mxCell>
        <mxCell id="mXDbekLg4qPnqd0OjegT-11" value="" style="edgeStyle=orthogonalEdgeStyle;rounded=0;orthogonalLoop=1;jettySize=auto;html=1;" edge="1" parent="1" source="mXDbekLg4qPnqd0OjegT-7" target="mXDbekLg4qPnqd0OjegT-10">
          <mxGeometry relative="1" as="geometry" />
        </mxCell>
        <mxCell id="mXDbekLg4qPnqd0OjegT-7" value="" style="shape=mxgraph.cisco.switches.workgroup_switch;html=1;pointerEvents=1;dashed=0;fillColor=#036897;strokeColor=#ffffff;strokeWidth=2;verticalLabelPosition=bottom;verticalAlign=top;align=center;outlineConnect=0;" vertex="1" parent="1">
          <mxGeometry x="370.5" y="280" width="101" height="50" as="geometry" />
        </mxCell>
        <mxCell id="mXDbekLg4qPnqd0OjegT-8" value="" style="html=1;outlineConnect=0;fillColor=#CCCCCC;strokeColor=#6881B3;gradientColor=none;gradientDirection=north;strokeWidth=2;shape=mxgraph.networks.comm_link_edge;html=1;exitX=0.5;exitY=0;exitDx=0;exitDy=0;exitPerimeter=0;" edge="1" parent="1" source="mXDbekLg4qPnqd0OjegT-2" target="mXDbekLg4qPnqd0OjegT-5">
          <mxGeometry width="100" height="100" relative="1" as="geometry">
            <mxPoint x="228" y="120" as="sourcePoint" />
            <mxPoint x="328" y="20" as="targetPoint" />
            <Array as="points">
              <mxPoint x="288" y="90" />
            </Array>
          </mxGeometry>
        </mxCell>
        <mxCell id="mXDbekLg4qPnqd0OjegT-10" value="" style="shape=mxgraph.cisco.switches.layer_3_switch;html=1;pointerEvents=1;dashed=0;fillColor=#036897;strokeColor=#ffffff;strokeWidth=2;verticalLabelPosition=bottom;verticalAlign=top;align=center;outlineConnect=0;" vertex="1" parent="1">
          <mxGeometry x="389" y="178" width="64" height="64" as="geometry" />
        </mxCell>
        <mxCell id="mXDbekLg4qPnqd0OjegT-15" value="" style="shape=mxgraph.cisco.misc.set_top_box;html=1;pointerEvents=1;dashed=0;fillColor=#036897;strokeColor=#ffffff;strokeWidth=2;verticalLabelPosition=bottom;verticalAlign=top;align=center;outlineConnect=0;" vertex="1" parent="1">
          <mxGeometry x="107.25" y="401" width="114" height="42" as="geometry" />
        </mxCell>
        <mxCell id="mXDbekLg4qPnqd0OjegT-21" value="" style="group" vertex="1" connectable="0" parent="1">
          <mxGeometry x="88.75" y="554" width="43" height="62" as="geometry" />
        </mxCell>
        <mxCell id="mXDbekLg4qPnqd0OjegT-19" value="" style="shape=mxgraph.cisco.servers.fileserver;html=1;pointerEvents=1;dashed=0;fillColor=#036897;strokeColor=#ffffff;strokeWidth=2;verticalLabelPosition=bottom;verticalAlign=top;align=center;outlineConnect=0;" vertex="1" parent="mXDbekLg4qPnqd0OjegT-21">
          <mxGeometry width="43" height="62" as="geometry" />
        </mxCell>
        <mxCell id="mXDbekLg4qPnqd0OjegT-20" value="" style="shape=mxgraph.cisco.storage.cloud;html=1;pointerEvents=1;dashed=0;fillColor=#036897;strokeColor=#ffffff;strokeWidth=2;verticalLabelPosition=bottom;verticalAlign=top;align=center;outlineConnect=0;" vertex="1" parent="mXDbekLg4qPnqd0OjegT-21">
          <mxGeometry x="5" y="24" width="38" height="25" as="geometry" />
        </mxCell>
        <mxCell id="mXDbekLg4qPnqd0OjegT-24" value="" style="group" vertex="1" connectable="0" parent="1">
          <mxGeometry x="30" y="553" width="43" height="62" as="geometry" />
        </mxCell>
        <mxCell id="mXDbekLg4qPnqd0OjegT-25" value="" style="shape=mxgraph.cisco.servers.fileserver;html=1;pointerEvents=1;dashed=0;fillColor=#036897;strokeColor=#ffffff;strokeWidth=2;verticalLabelPosition=bottom;verticalAlign=top;align=center;outlineConnect=0;" vertex="1" parent="mXDbekLg4qPnqd0OjegT-24">
          <mxGeometry width="43" height="62" as="geometry" />
        </mxCell>
        <mxCell id="mXDbekLg4qPnqd0OjegT-26" value="" style="shape=mxgraph.cisco.storage.cloud;html=1;pointerEvents=1;dashed=0;fillColor=#036897;strokeColor=#ffffff;strokeWidth=2;verticalLabelPosition=bottom;verticalAlign=top;align=center;outlineConnect=0;" vertex="1" parent="mXDbekLg4qPnqd0OjegT-24">
          <mxGeometry x="5" y="24" width="38" height="25" as="geometry" />
        </mxCell>
        <mxCell id="mXDbekLg4qPnqd0OjegT-29" value="" style="group" vertex="1" connectable="0" parent="1">
          <mxGeometry x="30" y="482" width="43" height="62" as="geometry" />
        </mxCell>
        <mxCell id="mXDbekLg4qPnqd0OjegT-30" value="" style="shape=mxgraph.cisco.servers.fileserver;html=1;pointerEvents=1;dashed=0;fillColor=#036897;strokeColor=#ffffff;strokeWidth=2;verticalLabelPosition=bottom;verticalAlign=top;align=center;outlineConnect=0;" vertex="1" parent="mXDbekLg4qPnqd0OjegT-29">
          <mxGeometry width="43" height="62" as="geometry" />
        </mxCell>
        <mxCell id="mXDbekLg4qPnqd0OjegT-31" value="" style="shape=mxgraph.cisco.storage.cloud;html=1;pointerEvents=1;dashed=0;fillColor=#036897;strokeColor=#ffffff;strokeWidth=2;verticalLabelPosition=bottom;verticalAlign=top;align=center;outlineConnect=0;" vertex="1" parent="mXDbekLg4qPnqd0OjegT-29">
          <mxGeometry x="5" y="24" width="38" height="25" as="geometry" />
        </mxCell>
        <mxCell id="mXDbekLg4qPnqd0OjegT-32" value="" style="group" vertex="1" connectable="0" parent="1">
          <mxGeometry x="30" y="410" width="43" height="62" as="geometry" />
        </mxCell>
        <mxCell id="mXDbekLg4qPnqd0OjegT-33" value="" style="shape=mxgraph.cisco.servers.fileserver;html=1;pointerEvents=1;dashed=0;fillColor=#036897;strokeColor=#ffffff;strokeWidth=2;verticalLabelPosition=bottom;verticalAlign=top;align=center;outlineConnect=0;" vertex="1" parent="mXDbekLg4qPnqd0OjegT-32">
          <mxGeometry width="43" height="62" as="geometry" />
        </mxCell>
        <mxCell id="mXDbekLg4qPnqd0OjegT-34" value="" style="shape=mxgraph.cisco.storage.cloud;html=1;pointerEvents=1;dashed=0;fillColor=#036897;strokeColor=#ffffff;strokeWidth=2;verticalLabelPosition=bottom;verticalAlign=top;align=center;outlineConnect=0;" vertex="1" parent="mXDbekLg4qPnqd0OjegT-32">
          <mxGeometry x="5" y="24" width="38" height="25" as="geometry" />
        </mxCell>
        <mxCell id="mXDbekLg4qPnqd0OjegT-35" value="" style="group" vertex="1" connectable="0" parent="1">
          <mxGeometry x="30" y="340" width="43" height="62" as="geometry" />
        </mxCell>
        <mxCell id="mXDbekLg4qPnqd0OjegT-36" value="" style="shape=mxgraph.cisco.servers.fileserver;html=1;pointerEvents=1;dashed=0;fillColor=#036897;strokeColor=#ffffff;strokeWidth=2;verticalLabelPosition=bottom;verticalAlign=top;align=center;outlineConnect=0;" vertex="1" parent="mXDbekLg4qPnqd0OjegT-35">
          <mxGeometry width="43" height="62" as="geometry" />
        </mxCell>
        <mxCell id="mXDbekLg4qPnqd0OjegT-37" value="" style="shape=mxgraph.cisco.storage.cloud;html=1;pointerEvents=1;dashed=0;fillColor=#036897;strokeColor=#ffffff;strokeWidth=2;verticalLabelPosition=bottom;verticalAlign=top;align=center;outlineConnect=0;" vertex="1" parent="mXDbekLg4qPnqd0OjegT-35">
          <mxGeometry x="5" y="24" width="38" height="25" as="geometry" />
        </mxCell>
        <mxCell id="mXDbekLg4qPnqd0OjegT-38" value="" style="group" vertex="1" connectable="0" parent="1">
          <mxGeometry x="268" y="476" width="43" height="140" as="geometry" />
        </mxCell>
        <mxCell id="mXDbekLg4qPnqd0OjegT-39" value="" style="shape=mxgraph.cisco.servers.fileserver;html=1;pointerEvents=1;dashed=0;fillColor=#036897;strokeColor=#ffffff;strokeWidth=2;verticalLabelPosition=bottom;verticalAlign=top;align=center;outlineConnect=0;" vertex="1" parent="mXDbekLg4qPnqd0OjegT-38">
          <mxGeometry width="43" height="62" as="geometry" />
        </mxCell>
        <mxCell id="mXDbekLg4qPnqd0OjegT-40" value="" style="shape=mxgraph.cisco.storage.cloud;html=1;pointerEvents=1;dashed=0;fillColor=#036897;strokeColor=#ffffff;strokeWidth=2;verticalLabelPosition=bottom;verticalAlign=top;align=center;outlineConnect=0;" vertex="1" parent="mXDbekLg4qPnqd0OjegT-38">
          <mxGeometry x="5" y="24" width="38" height="25" as="geometry" />
        </mxCell>
        <mxCell id="mXDbekLg4qPnqd0OjegT-72" value="" style="group" vertex="1" connectable="0" parent="mXDbekLg4qPnqd0OjegT-38">
          <mxGeometry x="-179.25" y="78" width="43" height="62" as="geometry" />
        </mxCell>
        <mxCell id="mXDbekLg4qPnqd0OjegT-73" value="" style="shape=mxgraph.cisco.servers.fileserver;html=1;pointerEvents=1;dashed=0;fillColor=#036897;strokeColor=#ffffff;strokeWidth=2;verticalLabelPosition=bottom;verticalAlign=top;align=center;outlineConnect=0;" vertex="1" parent="mXDbekLg4qPnqd0OjegT-72">
          <mxGeometry width="43" height="62" as="geometry" />
        </mxCell>
        <mxCell id="mXDbekLg4qPnqd0OjegT-74" value="" style="shape=mxgraph.cisco.storage.cloud;html=1;pointerEvents=1;dashed=0;fillColor=#036897;strokeColor=#ffffff;strokeWidth=2;verticalLabelPosition=bottom;verticalAlign=top;align=center;outlineConnect=0;" vertex="1" parent="mXDbekLg4qPnqd0OjegT-72">
          <mxGeometry x="5" y="24" width="38" height="25" as="geometry" />
        </mxCell>
        <mxCell id="mXDbekLg4qPnqd0OjegT-75" value="" style="group" vertex="1" connectable="0" parent="mXDbekLg4qPnqd0OjegT-38">
          <mxGeometry x="-238" y="77" width="43" height="62" as="geometry" />
        </mxCell>
        <mxCell id="mXDbekLg4qPnqd0OjegT-76" value="" style="shape=mxgraph.cisco.servers.fileserver;html=1;pointerEvents=1;dashed=0;fillColor=#036897;strokeColor=#ffffff;strokeWidth=2;verticalLabelPosition=bottom;verticalAlign=top;align=center;outlineConnect=0;" vertex="1" parent="mXDbekLg4qPnqd0OjegT-75">
          <mxGeometry width="43" height="62" as="geometry" />
        </mxCell>
        <mxCell id="mXDbekLg4qPnqd0OjegT-77" value="" style="shape=mxgraph.cisco.storage.cloud;html=1;pointerEvents=1;dashed=0;fillColor=#036897;strokeColor=#ffffff;strokeWidth=2;verticalLabelPosition=bottom;verticalAlign=top;align=center;outlineConnect=0;" vertex="1" parent="mXDbekLg4qPnqd0OjegT-75">
          <mxGeometry x="5" y="24" width="38" height="25" as="geometry" />
        </mxCell>
        <mxCell id="mXDbekLg4qPnqd0OjegT-78" value="" style="group" vertex="1" connectable="0" parent="mXDbekLg4qPnqd0OjegT-38">
          <mxGeometry x="-8" y="77" width="43" height="62" as="geometry" />
        </mxCell>
        <mxCell id="mXDbekLg4qPnqd0OjegT-79" value="" style="shape=mxgraph.cisco.servers.fileserver;html=1;pointerEvents=1;dashed=0;fillColor=#036897;strokeColor=#ffffff;strokeWidth=2;verticalLabelPosition=bottom;verticalAlign=top;align=center;outlineConnect=0;" vertex="1" parent="mXDbekLg4qPnqd0OjegT-78">
          <mxGeometry width="43" height="62" as="geometry" />
        </mxCell>
        <mxCell id="mXDbekLg4qPnqd0OjegT-80" value="" style="shape=mxgraph.cisco.storage.cloud;html=1;pointerEvents=1;dashed=0;fillColor=#036897;strokeColor=#ffffff;strokeWidth=2;verticalLabelPosition=bottom;verticalAlign=top;align=center;outlineConnect=0;" vertex="1" parent="mXDbekLg4qPnqd0OjegT-78">
          <mxGeometry x="5" y="24" width="38" height="25" as="geometry" />
        </mxCell>
        <mxCell id="mXDbekLg4qPnqd0OjegT-81" value="" style="group" vertex="1" connectable="0" parent="mXDbekLg4qPnqd0OjegT-38">
          <mxGeometry x="-65.25" y="77" width="43" height="62" as="geometry" />
        </mxCell>
        <mxCell id="mXDbekLg4qPnqd0OjegT-82" value="" style="shape=mxgraph.cisco.servers.fileserver;html=1;pointerEvents=1;dashed=0;fillColor=#036897;strokeColor=#ffffff;strokeWidth=2;verticalLabelPosition=bottom;verticalAlign=top;align=center;outlineConnect=0;" vertex="1" parent="mXDbekLg4qPnqd0OjegT-81">
          <mxGeometry width="43" height="62" as="geometry" />
        </mxCell>
        <mxCell id="mXDbekLg4qPnqd0OjegT-83" value="" style="shape=mxgraph.cisco.storage.cloud;html=1;pointerEvents=1;dashed=0;fillColor=#036897;strokeColor=#ffffff;strokeWidth=2;verticalLabelPosition=bottom;verticalAlign=top;align=center;outlineConnect=0;" vertex="1" parent="mXDbekLg4qPnqd0OjegT-81">
          <mxGeometry x="5" y="24" width="38" height="25" as="geometry" />
        </mxCell>
        <mxCell id="mXDbekLg4qPnqd0OjegT-84" value="" style="group" vertex="1" connectable="0" parent="mXDbekLg4qPnqd0OjegT-38">
          <mxGeometry x="-118.75" y="78" width="43" height="62" as="geometry" />
        </mxCell>
        <mxCell id="mXDbekLg4qPnqd0OjegT-85" value="" style="shape=mxgraph.cisco.servers.fileserver;html=1;pointerEvents=1;dashed=0;fillColor=#036897;strokeColor=#ffffff;strokeWidth=2;verticalLabelPosition=bottom;verticalAlign=top;align=center;outlineConnect=0;" vertex="1" parent="mXDbekLg4qPnqd0OjegT-84">
          <mxGeometry width="43" height="62" as="geometry" />
        </mxCell>
        <mxCell id="mXDbekLg4qPnqd0OjegT-86" value="" style="shape=mxgraph.cisco.storage.cloud;html=1;pointerEvents=1;dashed=0;fillColor=#036897;strokeColor=#ffffff;strokeWidth=2;verticalLabelPosition=bottom;verticalAlign=top;align=center;outlineConnect=0;" vertex="1" parent="mXDbekLg4qPnqd0OjegT-84">
          <mxGeometry x="5" y="24" width="38" height="25" as="geometry" />
        </mxCell>
        <mxCell id="mXDbekLg4qPnqd0OjegT-41" value="" style="group" vertex="1" connectable="0" parent="1">
          <mxGeometry x="260" y="553" width="43" height="62" as="geometry" />
        </mxCell>
        <mxCell id="mXDbekLg4qPnqd0OjegT-42" value="" style="shape=mxgraph.cisco.servers.fileserver;html=1;pointerEvents=1;dashed=0;fillColor=#036897;strokeColor=#ffffff;strokeWidth=2;verticalLabelPosition=bottom;verticalAlign=top;align=center;outlineConnect=0;" vertex="1" parent="mXDbekLg4qPnqd0OjegT-41">
          <mxGeometry width="43" height="62" as="geometry" />
        </mxCell>
        <mxCell id="mXDbekLg4qPnqd0OjegT-43" value="" style="shape=mxgraph.cisco.storage.cloud;html=1;pointerEvents=1;dashed=0;fillColor=#036897;strokeColor=#ffffff;strokeWidth=2;verticalLabelPosition=bottom;verticalAlign=top;align=center;outlineConnect=0;" vertex="1" parent="mXDbekLg4qPnqd0OjegT-41">
          <mxGeometry x="5" y="24" width="38" height="25" as="geometry" />
        </mxCell>
        <mxCell id="mXDbekLg4qPnqd0OjegT-44" value="" style="group" vertex="1" connectable="0" parent="1">
          <mxGeometry x="270" y="401" width="43" height="62" as="geometry" />
        </mxCell>
        <mxCell id="mXDbekLg4qPnqd0OjegT-45" value="" style="shape=mxgraph.cisco.servers.fileserver;html=1;pointerEvents=1;dashed=0;fillColor=#036897;strokeColor=#ffffff;strokeWidth=2;verticalLabelPosition=bottom;verticalAlign=top;align=center;outlineConnect=0;" vertex="1" parent="mXDbekLg4qPnqd0OjegT-44">
          <mxGeometry width="43" height="62" as="geometry" />
        </mxCell>
        <mxCell id="mXDbekLg4qPnqd0OjegT-46" value="" style="shape=mxgraph.cisco.storage.cloud;html=1;pointerEvents=1;dashed=0;fillColor=#036897;strokeColor=#ffffff;strokeWidth=2;verticalLabelPosition=bottom;verticalAlign=top;align=center;outlineConnect=0;" vertex="1" parent="mXDbekLg4qPnqd0OjegT-44">
          <mxGeometry x="5" y="24" width="38" height="25" as="geometry" />
        </mxCell>
        <mxCell id="mXDbekLg4qPnqd0OjegT-47" value="" style="group" vertex="1" connectable="0" parent="1">
          <mxGeometry x="202.75" y="553" width="43" height="62" as="geometry" />
        </mxCell>
        <mxCell id="mXDbekLg4qPnqd0OjegT-48" value="" style="shape=mxgraph.cisco.servers.fileserver;html=1;pointerEvents=1;dashed=0;fillColor=#036897;strokeColor=#ffffff;strokeWidth=2;verticalLabelPosition=bottom;verticalAlign=top;align=center;outlineConnect=0;" vertex="1" parent="mXDbekLg4qPnqd0OjegT-47">
          <mxGeometry width="43" height="62" as="geometry" />
        </mxCell>
        <mxCell id="mXDbekLg4qPnqd0OjegT-49" value="" style="shape=mxgraph.cisco.storage.cloud;html=1;pointerEvents=1;dashed=0;fillColor=#036897;strokeColor=#ffffff;strokeWidth=2;verticalLabelPosition=bottom;verticalAlign=top;align=center;outlineConnect=0;" vertex="1" parent="mXDbekLg4qPnqd0OjegT-47">
          <mxGeometry x="5" y="24" width="38" height="25" as="geometry" />
        </mxCell>
        <mxCell id="mXDbekLg4qPnqd0OjegT-50" value="" style="group" vertex="1" connectable="0" parent="1">
          <mxGeometry x="149.25" y="554" width="43" height="62" as="geometry" />
        </mxCell>
        <mxCell id="mXDbekLg4qPnqd0OjegT-51" value="" style="shape=mxgraph.cisco.servers.fileserver;html=1;pointerEvents=1;dashed=0;fillColor=#036897;strokeColor=#ffffff;strokeWidth=2;verticalLabelPosition=bottom;verticalAlign=top;align=center;outlineConnect=0;" vertex="1" parent="mXDbekLg4qPnqd0OjegT-50">
          <mxGeometry width="43" height="62" as="geometry" />
        </mxCell>
        <mxCell id="mXDbekLg4qPnqd0OjegT-52" value="" style="shape=mxgraph.cisco.storage.cloud;html=1;pointerEvents=1;dashed=0;fillColor=#036897;strokeColor=#ffffff;strokeWidth=2;verticalLabelPosition=bottom;verticalAlign=top;align=center;outlineConnect=0;" vertex="1" parent="mXDbekLg4qPnqd0OjegT-50">
          <mxGeometry x="5" y="24" width="38" height="25" as="geometry" />
        </mxCell>
        <mxCell id="mXDbekLg4qPnqd0OjegT-69" value="172.17.80.250&lt;br&gt;" style="text;html=1;resizable=0;autosize=1;align=center;verticalAlign=middle;points=[];fillColor=none;strokeColor=none;rounded=0;" vertex="1" parent="1">
          <mxGeometry x="107.25" y="452" width="90" height="20" as="geometry" />
        </mxCell>
        <mxCell id="mXDbekLg4qPnqd0OjegT-70" value="" style="shape=mxgraph.cisco.misc.set_top_box;html=1;pointerEvents=1;dashed=0;fillColor=#036897;strokeColor=#ffffff;strokeWidth=2;verticalLabelPosition=bottom;verticalAlign=top;align=center;outlineConnect=0;" vertex="1" parent="1">
          <mxGeometry x="376" y="396.5" width="114" height="42" as="geometry" />
        </mxCell>
        <mxCell id="mXDbekLg4qPnqd0OjegT-71" value="172.17.80.219" style="text;html=1;resizable=0;autosize=1;align=center;verticalAlign=middle;points=[];fillColor=none;strokeColor=none;rounded=0;" vertex="1" parent="1">
          <mxGeometry x="376" y="447.5" width="90" height="20" as="geometry" />
        </mxCell>
        <mxCell id="mXDbekLg4qPnqd0OjegT-87" value="" style="group" vertex="1" connectable="0" parent="1">
          <mxGeometry x="340" y="478" width="43" height="62" as="geometry" />
        </mxCell>
        <mxCell id="mXDbekLg4qPnqd0OjegT-88" value="" style="shape=mxgraph.cisco.servers.fileserver;html=1;pointerEvents=1;dashed=0;fillColor=#036897;strokeColor=#ffffff;strokeWidth=2;verticalLabelPosition=bottom;verticalAlign=top;align=center;outlineConnect=0;" vertex="1" parent="mXDbekLg4qPnqd0OjegT-87">
          <mxGeometry width="43" height="62" as="geometry" />
        </mxCell>
        <mxCell id="mXDbekLg4qPnqd0OjegT-89" value="" style="shape=mxgraph.cisco.storage.cloud;html=1;pointerEvents=1;dashed=0;fillColor=#036897;strokeColor=#ffffff;strokeWidth=2;verticalLabelPosition=bottom;verticalAlign=top;align=center;outlineConnect=0;" vertex="1" parent="mXDbekLg4qPnqd0OjegT-87">
          <mxGeometry x="5" y="24" width="38" height="25" as="geometry" />
        </mxCell>
        <mxCell id="mXDbekLg4qPnqd0OjegT-90" value="" style="group" vertex="1" connectable="0" parent="1">
          <mxGeometry x="398.75" y="550" width="43" height="62" as="geometry" />
        </mxCell>
        <mxCell id="mXDbekLg4qPnqd0OjegT-91" value="" style="shape=mxgraph.cisco.servers.fileserver;html=1;pointerEvents=1;dashed=0;fillColor=#036897;strokeColor=#ffffff;strokeWidth=2;verticalLabelPosition=bottom;verticalAlign=top;align=center;outlineConnect=0;" vertex="1" parent="mXDbekLg4qPnqd0OjegT-90">
          <mxGeometry width="43" height="62" as="geometry" />
        </mxCell>
        <mxCell id="mXDbekLg4qPnqd0OjegT-92" value="" style="shape=mxgraph.cisco.storage.cloud;html=1;pointerEvents=1;dashed=0;fillColor=#036897;strokeColor=#ffffff;strokeWidth=2;verticalLabelPosition=bottom;verticalAlign=top;align=center;outlineConnect=0;" vertex="1" parent="mXDbekLg4qPnqd0OjegT-90">
          <mxGeometry x="5" y="24" width="38" height="25" as="geometry" />
        </mxCell>
        <mxCell id="mXDbekLg4qPnqd0OjegT-93" value="" style="group" vertex="1" connectable="0" parent="1">
          <mxGeometry x="340" y="549" width="43" height="62" as="geometry" />
        </mxCell>
        <mxCell id="mXDbekLg4qPnqd0OjegT-94" value="" style="shape=mxgraph.cisco.servers.fileserver;html=1;pointerEvents=1;dashed=0;fillColor=#036897;strokeColor=#ffffff;strokeWidth=2;verticalLabelPosition=bottom;verticalAlign=top;align=center;outlineConnect=0;" vertex="1" parent="mXDbekLg4qPnqd0OjegT-93">
          <mxGeometry width="43" height="62" as="geometry" />
        </mxCell>
        <mxCell id="mXDbekLg4qPnqd0OjegT-95" value="" style="shape=mxgraph.cisco.storage.cloud;html=1;pointerEvents=1;dashed=0;fillColor=#036897;strokeColor=#ffffff;strokeWidth=2;verticalLabelPosition=bottom;verticalAlign=top;align=center;outlineConnect=0;" vertex="1" parent="mXDbekLg4qPnqd0OjegT-93">
          <mxGeometry x="5" y="24" width="38" height="25" as="geometry" />
        </mxCell>
        <mxCell id="mXDbekLg4qPnqd0OjegT-96" value="" style="group" vertex="1" connectable="0" parent="1">
          <mxGeometry x="570" y="549" width="43" height="62" as="geometry" />
        </mxCell>
        <mxCell id="mXDbekLg4qPnqd0OjegT-97" value="" style="shape=mxgraph.cisco.servers.fileserver;html=1;pointerEvents=1;dashed=0;fillColor=#036897;strokeColor=#ffffff;strokeWidth=2;verticalLabelPosition=bottom;verticalAlign=top;align=center;outlineConnect=0;" vertex="1" parent="mXDbekLg4qPnqd0OjegT-96">
          <mxGeometry width="43" height="62" as="geometry" />
        </mxCell>
        <mxCell id="mXDbekLg4qPnqd0OjegT-98" value="" style="shape=mxgraph.cisco.storage.cloud;html=1;pointerEvents=1;dashed=0;fillColor=#036897;strokeColor=#ffffff;strokeWidth=2;verticalLabelPosition=bottom;verticalAlign=top;align=center;outlineConnect=0;" vertex="1" parent="mXDbekLg4qPnqd0OjegT-96">
          <mxGeometry x="5" y="24" width="38" height="25" as="geometry" />
        </mxCell>
        <mxCell id="mXDbekLg4qPnqd0OjegT-99" value="" style="group" vertex="1" connectable="0" parent="1">
          <mxGeometry x="512.75" y="549" width="43" height="62" as="geometry" />
        </mxCell>
        <mxCell id="mXDbekLg4qPnqd0OjegT-100" value="" style="shape=mxgraph.cisco.servers.fileserver;html=1;pointerEvents=1;dashed=0;fillColor=#036897;strokeColor=#ffffff;strokeWidth=2;verticalLabelPosition=bottom;verticalAlign=top;align=center;outlineConnect=0;" vertex="1" parent="mXDbekLg4qPnqd0OjegT-99">
          <mxGeometry width="43" height="62" as="geometry" />
        </mxCell>
        <mxCell id="mXDbekLg4qPnqd0OjegT-101" value="" style="shape=mxgraph.cisco.storage.cloud;html=1;pointerEvents=1;dashed=0;fillColor=#036897;strokeColor=#ffffff;strokeWidth=2;verticalLabelPosition=bottom;verticalAlign=top;align=center;outlineConnect=0;" vertex="1" parent="mXDbekLg4qPnqd0OjegT-99">
          <mxGeometry x="5" y="24" width="38" height="25" as="geometry" />
        </mxCell>
        <mxCell id="mXDbekLg4qPnqd0OjegT-102" value="" style="group" vertex="1" connectable="0" parent="1">
          <mxGeometry x="459.25" y="550" width="43" height="62" as="geometry" />
        </mxCell>
        <mxCell id="mXDbekLg4qPnqd0OjegT-103" value="" style="shape=mxgraph.cisco.servers.fileserver;html=1;pointerEvents=1;dashed=0;fillColor=#036897;strokeColor=#ffffff;strokeWidth=2;verticalLabelPosition=bottom;verticalAlign=top;align=center;outlineConnect=0;" vertex="1" parent="mXDbekLg4qPnqd0OjegT-102">
          <mxGeometry width="43" height="62" as="geometry" />
        </mxCell>
        <mxCell id="mXDbekLg4qPnqd0OjegT-104" value="" style="shape=mxgraph.cisco.storage.cloud;html=1;pointerEvents=1;dashed=0;fillColor=#036897;strokeColor=#ffffff;strokeWidth=2;verticalLabelPosition=bottom;verticalAlign=top;align=center;outlineConnect=0;" vertex="1" parent="mXDbekLg4qPnqd0OjegT-102">
          <mxGeometry x="5" y="24" width="38" height="25" as="geometry" />
        </mxCell>
        <mxCell id="mXDbekLg4qPnqd0OjegT-105" value="" style="group;fillColor=#76608a;strokeColor=#432D57;fontColor=#ffffff;" vertex="1" connectable="0" parent="1">
          <mxGeometry x="570" y="470" width="43" height="62" as="geometry" />
        </mxCell>
        <mxCell id="mXDbekLg4qPnqd0OjegT-106" value="" style="shape=mxgraph.cisco.servers.fileserver;html=1;pointerEvents=1;dashed=0;fillColor=#a0522d;strokeColor=#6D1F00;strokeWidth=2;verticalLabelPosition=bottom;verticalAlign=top;align=center;outlineConnect=0;fontColor=#ffffff;" vertex="1" parent="mXDbekLg4qPnqd0OjegT-105">
          <mxGeometry width="43" height="62" as="geometry" />
        </mxCell>
        <mxCell id="mXDbekLg4qPnqd0OjegT-107" value="" style="shape=mxgraph.cisco.storage.cloud;html=1;pointerEvents=1;dashed=0;fillColor=#a0522d;strokeColor=#6D1F00;strokeWidth=2;verticalLabelPosition=bottom;verticalAlign=top;align=center;outlineConnect=0;fontColor=#ffffff;" vertex="1" parent="mXDbekLg4qPnqd0OjegT-105">
          <mxGeometry x="5" y="24" width="38" height="25" as="geometry" />
        </mxCell>
      </root>
    </mxGraphModel>
  </diagram>
</mxfile>
